<svg xmlns="http://www.w3.org/2000/svg" width="177" height="166" viewBox="0 0 176 166"><path d="M46.984-.016h5.028q1.752-.002 3.504-.004h4.191q4.946-.001 9.89-.003h5.036q8.07-.002 16.144-.004h4.649q8.324.001 16.656-.004 5.983-.005 11.965-.004h8.066c2.551 0 5.106-.004 7.66-.004h7.934q2.29.001 4.574-.004h3.059c.578.004 1.16.004 1.738 0h2.156c3.864-.016 7.871 1.598 10.797 4.152v.223c.09.035.09.035.184.074.332.188.547.426.808.703l.235.223.242.242q.117.11.234.227c.176.195.176.195.176.418q.164.054.332.11c.074.23.074.23.11.444h.222q.106.275.219.555h.223c.187.266.355.527.523.805l.152.246c.403.668.762 1.351 1.094 2.059q.065.136.137.273c.992 2.027 1.176 3.953 1.16 6.187v.903c.004.652 0 1.304 0 1.957q-.005 1.455-.004 2.91.001 2.461-.004 4.918-.007 2.455-.008 4.91v1.879q0 5.554-.011 11.11l-.012 10.617v3.253c-.004 10.086-.016 20.168-.094 44.055q-.002.516-.004 1.031c-.02 4.23-.047 8.461-.101 12.696q-.001.357-.008.715c-.043 3.937-.309 7.855-1.05 11.726-.02.106-.044.211-.063.32-.23 1.2-.516 2.387-.825 3.567l-.054.222c-.188.731-.38 1.454-.625 2.165-.106.312-.2.625-.297.937a28 28 0 0 1-.68 2.008l-.12.32a28 28 0 0 1-.923 2.184q-.18.397-.351.8c-.407.958-.86 1.88-1.352 2.794q-.314.596-.605 1.21c-.942 1.907-2.125 3.743-3.36 5.473-.148.203-.148.203-.254.43h-.222q-.042.116-.082.238c-.157.36-.352.649-.582.965-.078.105-.153.215-.235.328q-.1.123-.207.246h-.219q-.111.274-.222.555h-.223l-.07.23c-.2.43-.48.743-.793 1.098q-.17.2-.348.398-.082.093-.172.192c-.16.187-.316.383-.468.574q-.123.14-.246.285h-.223l-.082.188a4 4 0 0 1-.582.812h-.219l-.223.442h-.222q-.107.222-.219.445h-.223c-.074.148-.144.293-.218.445h-.223c-.043.106-.043.106-.09.215-.133.23-.133.23-.465.34q-.051.164-.11.332c-.16.16-.16.16-.359.32a12 12 0 0 0-.964.903l-.645.597q-.088.078-.176.16a57 57 0 0 1-2.336 2.024c-.558.457-1.113.918-1.648 1.402-.367.313-.664.274-1.137.274H60.461c-11.719 0-23.441 0-35.516-.047q-1.222-.007-2.445-.008l-2.914-.012q-.732-.005-1.465-.004-.667-.001-1.336-.007h-.476c-3.75.003-7.73-1.688-10.559-4.157v-.222q-.093-.036-.187-.079c-.333-.187-.547-.421-.81-.699-.112-.113-.112-.113-.23-.226q-.123-.117-.246-.239a13 13 0 0 1-.234-.226c-.172-.195-.172-.195-.172-.418-.11-.04-.219-.074-.332-.113-.078-.227-.078-.227-.113-.442h-.219a42 42 0 0 1-.223-.558h-.218c-.188-.262-.36-.528-.528-.805q-.073-.118-.148-.242a21 21 0 0 1-1.094-2.059q-.074-.151-.148-.308c-.598-1.274-.914-2.372-.903-3.786v-.457c-.004-.418 0-.832 0-1.246v-3.738q.005-1.774.004-3.543c-.004-1.988 0-3.977 0-5.965q.005-2.964.004-5.93v-1.87q.001-6.849.008-13.696c.004-4.285.004-8.57.008-12.855v-3.567q-.001-6.357.004-12.715v-3.699C-.02 63.04-.02 63.04.039 56.66q.007-.485.008-.976c.023-2.625.117-5.211.508-7.813q.024-.193.054-.39c.09-.626.196-1.239.336-1.856.067-.285.11-.57.153-.855a24 24 0 0 1 .449-2.02q.054-.22.11-.441c.198-.82.413-1.637.663-2.446.04-.133.082-.261.121-.398.438-1.438.91-2.867 1.5-4.25q.17-.394.329-.793c.394-.98.812-1.95 1.27-2.902q.096-.206.194-.41c1.735-3.684 4.043-7.141 6.536-10.344l.234-.313c.07-.094.137-.183.21-.277l.18-.242c.075-.086.075-.086.153-.168h.219l.222-.555h.219q.04-.094.086-.188c.164-.308.363-.566.578-.84l.234-.3c.106-.113.106-.113.207-.227h.223l.082-.187c.285-.532.695-.961 1.133-1.367h.223q.036-.094.074-.188c.187-.332.418-.559.7-.812h.222q.051-.165.11-.332c.171-.176.171-.176.394-.364.402-.344.797-.691 1.191-1.05.184-.141.184-.141.402-.141l.07-.188c.212-.355.512-.57.837-.812.14-.11.285-.219.425-.328.11-.082.11-.082.22-.168q.313-.245.616-.496c1-.828 2.047-1.57 3.125-2.293q.304-.203.602-.407a66 66 0 0 1 4.07-2.535c.164-.093.164-.093.328-.191.106-.059.207-.117.317-.18q.136-.076.277-.16c.317-.144.602-.195.945-.238v-.223c.32-.14.528-.223.883-.223v-.222q.082-.036.168-.07.744-.333 1.477-.676c2.926-1.356 5.941-2.344 9.058-3.157.227-.058.453-.125.676-.191a8.3 8.3 0 0 1 1.938-.324c.48-.04.894-.149 1.386-.149m0 0" style="stroke:none;fill-rule:nonzero;fill:#111;fill-opacity:1"/><path d="M65.668 43.305a22 22 0 0 1 .414.11c3.883 1.1 6.742 3.663 9.316 6.663.176.203.348.406.524.61l.387.445q.455.533.918 1.062.345.392.68.79a82 82 0 0 0 1.972 2.238c.508.55.992 1.117 1.473 1.691a52 52 0 0 0 1.73 1.969c.465.508.91 1.027 1.356 1.55l.343.403.172.203c.418.488.848.973 1.277 1.453.442.488.872.988 1.301 1.488.524.618 1.047 1.235 1.594 1.829.355.386.691.78 1.016 1.187.43.535.882 1.031 1.347 1.531.434.47.836.953 1.235 1.453.379.461.78.895 1.187 1.332.465.504.91 1.024 1.356 1.547q.959 1.143 1.972 2.239c.504.554.992 1.125 1.473 1.699a63 63 0 0 0 1.64 1.875c.454.496.891 1.004 1.325 1.516.543.64 1.086 1.273 1.656 1.89.371.402.73.813 1.07 1.242.45.559.93 1.078 1.418 1.602.45.48.864.976 1.27 1.488.406.492.844.953 1.277 1.422.477.516.934 1.047 1.387 1.578q.171.204.344.406.082.099.172.204c.418.492.847.972 1.277 1.453.453.5.89 1.007 1.328 1.52a140 140 0 0 0 1.883 2.148c.441.488.87.988 1.3 1.488.587.695 1.18 1.383 1.79 2.058q.662.738 1.3 1.493a76 76 0 0 0 1.883 2.148q.742.822 1.45 1.672a68 68 0 0 0 1.64 1.879q.679.745 1.328 1.52a89 89 0 0 0 1.883 2.148c.453.496.89 1.004 1.328 1.52.59.69 1.184 1.382 1.793 2.058.45.5.887 1.008 1.328 1.52.621.722 1.242 1.44 1.883 2.148a81 81 0 0 1 1.316 1.512q.972 1.132 1.973 2.234c.516.57 1.012 1.148 1.492 1.746.438.543.899 1.059 1.368 1.57.457.5.898 1.012 1.335 1.532a81 81 0 0 0 1.883 2.144c.496.547.973 1.106 1.446 1.668.5.602 1.011 1.184 1.543 1.758.554.61 1.09 1.234 1.62 1.863.286.34.57.676.86 1.016.082.098.082.098.168.195q.463.54.937 1.067c.391.437.735.902 1.075 1.382.222.317.457.622.695.926 1.453 1.946 2.688 4.055 3.43 6.371q.119.353.25.703c.91 2.532 1.316 5.258 1.316 7.946v.254c-.004 1.672-.23 3.25-.601 4.882l-.06.27c-.417 1.934-1.112 3.73-1.948 5.516-.106.226-.106.226-.203.543h.55c-.117.09-.117.09-.234.183-.398.324-.77.676-1.14 1.031l-.169.157q-.07.069-.148.136c-.555.461-.918.657-1.648.657q-.117-.001-.239.004-.39.001-.789-.004h-.574q-.791.006-1.582 0h-4.742a861 861 0 0 0-4.492 0c-2.528 0-5.051-.004-7.579-.004q-3.768-.005-7.543-.004h-7.98c-3.957-.004-7.914-.004-11.871-.008-5.45-.004-10.895-.004-16.344-.008h-4.519q-8.11.001-16.22-.004H61.83c-8.427-.004-16.852-.007-25.278-.027h-.801q-4.863-.011-9.727-.027-.358-.002-.722-.004h-.356q-1.222-.007-2.445-.008l-2.914-.012q-.732-.005-1.465-.004-.667-.001-1.336-.007h-.476c-3.75.003-7.73-1.688-10.559-4.157v-.222q-.093-.036-.187-.079c-.333-.187-.547-.421-.81-.699-.112-.113-.112-.113-.23-.226q-.123-.117-.246-.239a13 13 0 0 1-.234-.226c-.172-.195-.172-.195-.172-.418-.11-.04-.219-.074-.332-.113-.078-.227-.078-.227-.113-.442h-.219a42 42 0 0 1-.223-.558h-.218c-.188-.262-.36-.528-.528-.805q-.073-.118-.148-.242a21 21 0 0 1-1.094-2.059q-.074-.151-.148-.308c-.57-1.211-.914-2.297-.914-3.645-.004-.133-.004-.266-.008-.406q-.007-.54-.008-1.078.001-.341-.004-.676-.007-1.188-.008-2.371c0-.73-.008-1.465-.015-2.2q-.012-.95-.012-1.894c0-.379-.004-.754-.008-1.133a45 45 0 0 1-.004-1.258 12 12 0 0 1-.008-.37c.008-.536.036-.86.383-1.278.278-.254.563-.48.863-.707.118-.102.23-.207.344-.313a73 73 0 0 1 1.531-1.375q.392-.346.778-.699.603-.543 1.21-1.074c.262-.234.52-.469.782-.703q.597-.543 1.207-1.074.393-.345.781-.703.492-.446.996-.887.78-.687 1.547-1.387.274-.253.555-.5c.09-.082.18-.168.277-.25q.27-.246.543-.492a179 179 0 0 0 1.719-1.567c.219-.199.434-.398.633-.613.144-.133.144-.133.363-.133v-.222q.277-.238.559-.465a12 12 0 0 0 1.234-1.113q.292-.292.61-.559.678-.596 1.328-1.223c.636-.597 1.273-1.195 1.918-1.785q.884-.808 1.757-1.629c.07-.062.141-.129.211-.191a78 78 0 0 0 2.64-2.563c.329-.332.661-.652 1.013-.957.468-.406.902-.84 1.336-1.285q.217-.224.441-.449a9 9 0 0 1 .191-.2c.22-.206.438-.406.668-.6.461-.403.891-.829 1.32-1.266q.118-.117.235-.239c.246-.246.492-.496.734-.742l.973-.984q.107-.106.219-.223c.344-.348.691-.68 1.062-1 .543-.473 1.047-.98 1.555-1.492l.313-.313.644-.648.82-.824.793-.797q.146-.147.297-.293c.485-.492.957-.988 1.403-1.516.226-.258.464-.5.71-.738.399-.395.774-.8 1.141-1.23.27-.305.563-.59.856-.88.28-.288.539-.59.8-.894.246-.277.508-.535.77-.797.203-.207.39-.422.582-.64.246-.29.5-.567.773-.832.34-.34.66-.692.97-1.06q.191-.217.39-.429l.187-.199c.055-.059.114-.113.168-.176.156-.281.078-.441-.004-.746a9 9 0 0 0-.23-.531c-.051-.102-.098-.203-.149-.309-.05-.11-.105-.215-.16-.328l-.164-.344c-1.25-2.578-2.594-5.113-4.34-7.394q-.239-.316-.472-.637c-.11-.152-.22-.3-.328-.453l-.141-.191c-1.059-1.43-2.29-2.711-3.547-3.961q-.35-.352-.7-.703l-.456-.457-.207-.207c-1.992-1.98-4.309-3.653-6.684-5.137.067-.387.16-.695.344-1.04q.07-.136.144-.277.075-.145.157-.296.082-.152.164-.31a73 73 0 0 1 2.523-4.401c.227-.375.442-.75.656-1.13.645-1.144 1.364-2.234 2.094-3.32q.083-.118.164-.242A63 63 0 0 1 36.7 59.59q.327-.434.64-.88a32 32 0 0 1 2.817-3.398c.344-.359.657-.73.961-1.12.633-.782 1.34-1.485 2.051-2.192l.691-.691.446-.446.203-.203a27 27 0 0 1 1.48-1.36q.105-.089.211-.179c1.832-1.574 3.852-2.855 5.961-4.02q.299-.16.59-.331c3.84-2.098 8.738-2.61 12.918-1.465m0 0" style="stroke:none;fill-rule:nonzero;fill:#e1e2e2;fill-opacity:1"/><path d="M90.543 26.648c.437.176.684.461.996.813q.16.182.32.36.087.092.172.19c.332.376.676.743 1.02 1.11q.434.475.855.961c.387.445.785.875 1.192 1.309q.786.836 1.566 1.691c.453.496.918.973 1.395 1.445.277.282.53.575.785.871.773.895 1.59 1.75 2.394 2.618q.615.662 1.23 1.332.786.854 1.583 1.703.944 1.001 1.86 2.031c.538.613 1.085 1.211 1.667 1.785.277.285.535.586.797.887.184.21.375.406.574.605.328.325.633.664.934 1.016.644.734 1.312 1.445 1.98 2.16.075.078.145.156.223.235q.206.224.418.449.504.532.984 1.09c.348.402.719.78 1.102 1.156.45.445.883.898 1.293 1.383.765.89 1.578 1.738 2.379 2.597.472.508.937 1.016 1.406 1.524q.65.71 1.312 1.414c.395.422.786.847 1.16 1.285.348.406.723.777 1.106 1.156.29.293.559.606.828.922.242.274.5.527.758.781.195.2.379.407.563.621.402.465.82.915 1.242 1.364.488.515.965 1.035 1.425 1.574.184.207.372.398.567.59q.391.386.746.8c.402.47.82.919 1.242 1.368q.234.245.469.496.117.122.234.25c.38.402.754.8 1.13 1.203l.198.21c.399.427.782.86 1.16 1.302q.275.303.567.59c.27.265.523.539.77.828.328.382.675.738 1.035 1.086.21.218.406.437.601.664.422.484.86.953 1.301 1.418a45 45 0 0 1 1.48 1.632c.243.274.5.528.758.782.196.199.375.402.555.613q.575.66 1.18 1.297l.21.23c.383.407.77.817 1.153 1.227l.238.25q.223.236.446.473c.414.44.816.886 1.207 1.347.242.274.5.528.761.781q.286.299.555.614c.383.441.777.87 1.176 1.297q.104.113.215.226.572.616 1.152 1.227l.234.254q.223.236.446.472c.41.434.804.875 1.195 1.328.32.364.656.72.988 1.075.567.601 1.125 1.207 1.684 1.816q.782.85 1.574 1.688.512.544 1 1.105.385.452.805.863c.363.36.699.735 1.027 1.117.242.278.5.532.762.786.195.203.379.406.562.62q.606.698 1.243 1.364c.414.438.824.879 1.218 1.332.39.453.797.89 1.207 1.328q.235.248.469.496.116.124.238.254a272 272 0 0 1 3.227 3.477c.105.113.21.23.316.343q.078.09.16.176.222.24.438.48c.047.055.094.106.144.165.157.172.157.172.352.332.508.469.633.84.668 1.531q.005.487-.008.969v.527c0 .371-.004.738-.012 1.11q-.01.691-.011 1.39c-.012 2.852-.114 5.68-.582 8.5-.032.18-.059.36-.09.54-.57 3.487-1.3 6.917-2.48 10.25l-.106.292c-1.29 3.63-2.98 7.113-5.129 10.305-.25.387-.48.781-.707 1.183-.14.211-.14.211-.363.325.015-.133.035-.262.05-.399.422-3.656.407-8.562-1.816-11.707q-.093-.127-.187-.265c-.938-1.297-1.899-2.582-2.938-3.797q-.41-.479-.793-.98c-.39-.512-.808-.997-1.226-1.481a35 35 0 0 1-.965-1.172 28 28 0 0 0-1.07-1.258c-.25-.285-.489-.578-.727-.871-.375-.465-.762-.91-1.16-1.355-.243-.278-.473-.563-.707-.852-.434-.54-.891-1.05-1.356-1.563a38 38 0 0 1-.836-.949 64 64 0 0 0-.687-.765 20 20 0 0 1-.95-1.125c-.535-.684-1.12-1.32-1.71-1.961a30 30 0 0 1-1.293-1.5c-.496-.618-1.036-1.192-1.582-1.766a26 26 0 0 1-1.356-1.574c-.402-.492-.836-.95-1.266-1.414a36 36 0 0 1-.894-1.004 79 79 0 0 0-.941-1.059q-.305-.34-.602-.687c-.367-.422-.75-.836-1.133-1.246a63 63 0 0 1-1.793-2.024 31 31 0 0 0-.344-.398 51.662 51.662 0 0 0-1.543-1.75 54 54 0 0 1-1.324-1.524 27 27 0 0 0-1.777-1.945c-.36-.371-.676-.777-1-1.18a10 10 0 0 0-.824-.879 11 11 0 0 1-.524-.574c-.383-.445-.781-.875-1.18-1.304-1.753-1.88-1.753-1.88-2.593-2.852a37 37 0 0 0-.738-.816q-.54-.597-1.043-1.223a27 27 0 0 0-1.426-1.617 37 37 0 0 1-.91-1.008c-.387-.445-.79-.879-1.196-1.309-.59-.632-1.18-1.27-1.761-1.91-.227-.254-.461-.5-.696-.75a36 36 0 0 1-1.898-2.164c-.434-.523-.902-1.016-1.367-1.512a27 27 0 0 1-.707-.793c-.371-.433-.762-.847-1.149-1.261-.77-.828-1.539-1.657-2.281-2.516-.473-.543-.961-1.074-1.45-1.61l-.609-.667-1.43-1.559c-1.804-1.965-1.804-1.965-2.464-2.722a82 82 0 0 0-2.145-2.364q-1.282-1.379-2.535-2.781c-.308-.348-.625-.688-.941-1.031-.344-.375-.688-.75-1.02-1.137-.375-.434-.77-.852-1.164-1.27a29 29 0 0 1-1.543-1.792c-.34-.403-.71-.766-1.086-1.133-.289-.293-.554-.594-.82-.907-.262-.3-.535-.597-.805-.894-.457-.496-.91-1-1.36-1.504l-.57-.629-.163-.176c-.153-.164-.301-.332-.454-.496q-.297-.331-.578-.676a4.8 4.8 0 0 0-.812-.753c.05-.524.172-.801.504-1.208 1.894-2.44 3.422-5.136 4.8-7.894l.13-.254c1.495-3.008 2.456-6.57 2.456-9.926q.001-.417.008-.836c.012-1.656-.305-3.18-.824-4.754M65.668 43.305a22 22 0 0 1 .414.11c3.125.886 5.742 2.753 7.953 5.093.086.09.086.09.176.18.316.347.48.585.523 1.058.086.691.278 1.297.512 1.953.434 1.356.535 2.621.527 4.035-.003.301 0 .602 0 .903.004 1.828-.273 3.562-.695 5.336-.043.183-.043.183-.086.375a38 38 0 0 1-.812 2.941q-.047.153-.098.305c-1.578 4.879-3.832 9.547-6.312 14.02l-.168.304a112 112 0 0 1-4.438 7.344c-.316.48-.617.965-.914 1.457-.934 1.52-1.988 2.969-3.023 4.418q-.487.68-.961 1.37c-.645.93-1.301 1.848-1.977 2.763q-.556.751-1.102 1.515c-1.14 1.598-2.34 3.153-3.535 4.711-.254.332-.5.668-.75 1.004-.476.64-.976 1.258-1.484 1.875q-.233.287-.473.574c-.078.102-.16.2-.246.305-.332.406-.664.82-.996 1.23-.492.61-.984 1.215-1.48 1.825l-.473.578q-.673.832-1.363 1.648c-.66.781-1.309 1.578-1.95 2.375a43 43 0 0 1-1.855 2.195c-.242.274-.473.56-.7.844-.452.563-.937 1.09-1.433 1.617-.36.383-.699.774-1.027 1.188a26 26 0 0 1-1.402 1.586c-.458.492-.883 1-1.301 1.527-.282.34-.586.645-.903.95-.273.277-.527.566-.777.863-.312.36-.629.71-.945 1.062q-.245.272-.485.543c-1.004 1.125-2.023 2.238-3.093 3.297q-.303.31-.582.645c-.336.394-.7.761-1.07 1.128-.43.43-.84.864-1.235 1.329-.348.39-.727.757-1.102 1.125-.234.234-.449.476-.66.726-.453.52-.933 1.004-1.422 1.488-.14.137-.14.137-.28.282-.395.39-.786.785-1.18 1.175l-.868.868q-.133.13-.265.265c-.465.465-.915.938-1.34 1.438-.207.242-.426.469-.653.695-.109.113-.109.113-.226.23-.211.2-.422.387-.645.575-.617.543-1.191 1.133-1.77 1.719l-.62.628q-.886.89-1.766 1.786-.543.547-1.086 1.093-.205.213-.41.418c-.191.196-.383.387-.574.582q-.087.083-.172.176c-.395.39-.395.39-.64.39v.223c-.157.157-.157.157-.38.34-.53.453-1.011.942-1.5 1.438-.539.55-1.082 1.086-1.664 1.59-.36.312-.699.636-1.043.964-.488.457-.976.91-1.484 1.348q-.3.264-.586.54l-.195.183c-.13.12-.254.242-.383.363-.297.277-.567.52-.945.676-.051-.098-.098-.196-.149-.297q-.166-.34-.344-.672c-.375-.73-.672-1.46-.937-2.238-.11-.336-.11-.336-.235-.61-.113-.312-.136-.546-.14-.875 0-.175 0-.175-.004-.351-.004-.188-.004-.188-.004-.38 0-.132-.004-.265-.004-.401a74 74 0 0 1-.012-1.317q-.005-.228-.004-.457a153 153 0 0 1-.011-1.89q-.006-1.354-.024-2.708-.016-.955-.015-1.906 0-.569-.012-1.136-.005-.637-.004-1.274l-.012-.375c.008-.539.036-.863.383-1.289.278-.25.563-.48.863-.703.118-.102.23-.207.344-.313a73 73 0 0 1 1.531-1.375q.392-.346.778-.699.603-.543 1.21-1.074c.262-.234.52-.469.782-.703q.597-.543 1.207-1.074.393-.345.781-.703.492-.446.996-.887.78-.687 1.547-1.387.274-.253.555-.5c.09-.082.18-.168.277-.25q.27-.246.543-.492a179 179 0 0 0 1.719-1.567c.219-.199.434-.398.633-.613.144-.133.144-.133.363-.133v-.222q.277-.238.559-.465a12 12 0 0 0 1.234-1.113q.292-.292.61-.559.678-.596 1.328-1.223c.636-.597 1.273-1.195 1.918-1.785q.884-.808 1.757-1.629c.07-.062.141-.129.211-.191a78 78 0 0 0 2.64-2.563c.329-.332.661-.652 1.013-.957.468-.406.902-.84 1.336-1.285q.217-.224.441-.449a9 9 0 0 1 .191-.2c.22-.206.438-.406.668-.6.461-.403.891-.829 1.32-1.266q.118-.117.235-.239c.246-.246.492-.496.734-.742l.973-.984q.107-.106.219-.223c.344-.348.691-.68 1.062-1 .543-.473 1.047-.98 1.555-1.492l.313-.313.644-.648.82-.824.793-.797q.146-.147.297-.293c.485-.492.957-.988 1.403-1.516.226-.258.464-.5.71-.738.399-.395.774-.8 1.141-1.23.27-.305.563-.59.856-.88.28-.288.539-.59.8-.894.246-.277.508-.535.77-.797.203-.207.39-.422.582-.64.246-.29.5-.567.773-.832.34-.34.66-.692.97-1.06q.191-.217.39-.429l.187-.199c.055-.059.114-.113.168-.176.156-.281.078-.441-.004-.746a9 9 0 0 0-.23-.531c-.051-.102-.098-.203-.149-.309-.05-.11-.105-.215-.16-.328l-.164-.344c-1.25-2.578-2.594-5.113-4.34-7.394q-.239-.316-.472-.637c-.11-.152-.22-.3-.328-.453l-.141-.191c-1.059-1.43-2.29-2.711-3.547-3.961q-.35-.352-.7-.703l-.456-.457-.207-.207c-1.992-1.98-4.309-3.653-6.684-5.137.067-.387.16-.695.344-1.04q.07-.136.144-.277.075-.145.157-.296.082-.152.164-.31a73 73 0 0 1 2.523-4.401c.227-.375.442-.75.656-1.13.645-1.144 1.364-2.234 2.094-3.32q.083-.118.164-.242A63 63 0 0 1 36.7 59.59q.327-.434.64-.88a32 32 0 0 1 2.817-3.398c.344-.359.657-.73.961-1.12.633-.782 1.34-1.485 2.051-2.192l.691-.691.446-.446.203-.203a27 27 0 0 1 1.48-1.36q.105-.089.211-.179c1.832-1.574 3.852-2.855 5.961-4.02q.299-.16.59-.331c3.84-2.098 8.738-2.61 12.918-1.465m0 0" style="stroke:none;fill-rule:nonzero;fill:#fefefe;fill-opacity:1"/><path d="M65.164 52.18q.258.223.504.453l.254.219a7.3 7.3 0 0 1 2.316 4.78c.055 1.302.028 2.606-.25 3.884-.023.144-.05.285-.078.433-.82 4.36-3.273 8.672-5.668 12.336q-.115.17-.23.352a111 111 0 0 1-4.657 6.605l-.511.668c-.54.711-1.094 1.414-1.653 2.11-.285.359-.57.718-.847 1.082-.473.613-.961 1.21-1.45 1.812l-.753.938a43 43 0 0 1-1.938 2.277c-.273.3-.531.605-.785.922-.293-.258-.41-.485-.535-.852-.04-.105-.074-.21-.113-.316q-.059-.171-.122-.344a32 32 0 0 0-2.77-5.816q-.061-.105-.124-.215a26 26 0 0 0-1.941-2.824c-.153-.192-.301-.383-.454-.579a94 94 0 0 0-.77-.98c-.12-.16-.245-.316-.366-.477-.5-.64-1.035-1.238-1.586-1.832a23 23 0 0 1-.645-.734 25 25 0 0 0-2.734-2.719c-.297-.254-.586-.52-.871-.785q-.638-.59-1.282-1.176l-.253-.23q-.392-.344-.801-.664c.449-1.285 1.629-2.41 2.484-3.457l.442-.547c.5-.621 1.015-1.211 1.554-1.797.36-.402.696-.82 1.035-1.238q.33-.41.668-.809l.184-.219c.156-.148.156-.148.375-.148.027-.063.05-.125.078-.188.18-.324.406-.546.668-.808l.156-.156.328-.328.493-.493a30 30 0 0 1 1.625-1.527c.285-.246.558-.504.832-.762 1.808-1.672 3.824-3.058 5.882-4.402q.114-.072.23-.149c1.876-1.214 3.923-2.027 6.071-2.625.078-.023.153-.042.23-.066 2.676-.715 5.571-.32 7.778 1.39m0 0" style="stroke:none;fill-rule:nonzero;fill:#101111;fill-opacity:1"/><path d="M74.625 49.855c.313.313.457.7.64 1.098q.059.129.122.258.117.263.234.52.13.284.266.566c.511 1.129.785 2.348 1.058 3.555l.063.273c.64 3.023.406 6.465-.063 9.496l-.054.356c-.782 5.156-2.606 10.296-4.786 15.007q-.229.497-.453 1a65 65 0 0 1-1.953 3.993q-.28.519-.55 1.039a130 130 0 0 1-2.426 4.406l-.54.937a99 99 0 0 1-3.675 5.954c-.305.453-.598.906-.887 1.363a120 120 0 0 1-3.7 5.379 66 66 0 0 0-1.269 1.832 57 57 0 0 1-1.894 2.625q-.31.409-.613.824c-.692.926-1.391 1.844-2.09 2.766q-.188.241-.371.488c-.579.762-1.168 1.512-1.766 2.258q-.562.703-1.117 1.414l-.149.195q-.376.476-.746.957a169 169 0 0 1-2.636 3.29c-.16.198-.325.398-.485.597l-.465.57a68 68 0 0 1-1.668 1.984q-.528.605-1.027 1.227a71 71 0 0 1-1.57 1.852q-.521.602-1.035 1.21c-.083.094-.083.094-.165.192q-.416.486-.828.973a74 74 0 0 1-1.937 2.195c-.504.55-.988 1.113-1.465 1.687a59 59 0 0 1-1.969 2.22c-.222.237-.437.48-.652.718-.387.437-.777.863-1.172 1.293-.414.445-.816.894-1.215 1.355-.34.387-.687.762-1.035 1.137q-.447.482-.875.98c-.477.551-.992 1.055-1.512 1.567-.437.434-.851.879-1.254 1.348-.34.39-.71.742-1.078 1.105-.238.234-.453.48-.672.734-.566.66-1.195 1.262-1.812 1.872-.645.644-1.262 1.296-1.824 2.011-.184.227-.375.43-.582.633-.22.219-.434.438-.653.656-.136.137-.136.137-.273.278q-.151.145-.3.297l-3.2 3.222q-.972.973-1.938 1.946l-1.695 1.707c-.297.296-.598.597-.894.898q-.423.42-.844.848-.224.228-.453.457c-.457.46-.918.902-1.426 1.308a3.7 3.7 0 0 1-1.086-.613q-.13-.099-.266-.203c-.062-.063-.129-.121-.195-.184v-.222q-.093-.036-.187-.079c-.333-.187-.547-.421-.81-.699a13 13 0 0 1-.23-.226q-.123-.117-.246-.239l-.234-.226c-.172-.195-.172-.195-.172-.418-.11-.04-.219-.074-.332-.113-.078-.227-.078-.227-.113-.442h-.219a42 42 0 0 1-.223-.558h-.218a10 10 0 0 1-.457-.664c-.043-.063-.082-.13-.125-.192-.102-.16-.204-.316-.305-.476.351-.825 1.18-1.422 1.848-1.997.324-.285.64-.582.957-.875a90 90 0 0 1 1.285-1.18c1.093-.988 2.16-1.984 3.183-3.046l.22-.219c.062-.066.128-.133.19-.203.168-.14.168-.14.387-.14v-.223c.145-.14.145-.14.352-.313.625-.531 1.191-1.113 1.765-1.695q.31-.311.614-.617c.437-.438.87-.88 1.304-1.317l1.512-1.523q.303-.304.602-.61c.57-.574 1.14-1.14 1.754-1.664q.32-.275.617-.582c.097-.097.097-.097.199-.195.2-.215.387-.43.578-.652.453-.52.934-1.008 1.422-1.496.14-.137.14-.137.281-.278q.593-.592 1.184-1.18l.867-.867q.13-.127.266-.261c.46-.465.906-.938 1.332-1.438.246-.281.507-.539.773-.8.344-.34.676-.68.988-1.047.332-.395.692-.758 1.059-1.118.363-.363.719-.722 1.05-1.113.329-.39.688-.75 1.052-1.11.418-.417.824-.843 1.21-1.296.325-.371.66-.73 1-1.09.461-.496.922-.996 1.368-1.512q.325-.381.664-.75l.254-.285q.252-.282.504-.558a30 30 0 0 0 1.214-1.418c.516-.641 1.075-1.239 1.633-1.84.485-.52.946-1.059 1.406-1.598q.17-.205.34-.402c.086-.102.086-.102.176-.203q.533-.623 1.082-1.227a34 34 0 0 0 1.527-1.812q.792-.98 1.606-1.942a140 140 0 0 0 1.93-2.347c.117-.149.238-.293.355-.442.063-.074.121-.152.184-.226.449-.56.902-1.11 1.359-1.66a104 104 0 0 0 1.535-1.926c.344-.446.703-.875 1.067-1.305.433-.508.836-1.027 1.222-1.574.317-.438.649-.864.985-1.29 1.05-1.35 2.058-2.73 3.043-4.128q.585-.819 1.183-1.625.826-1.119 1.621-2.262.41-.585.836-1.172a99 99 0 0 0 2.668-3.898q.245-.37.496-.743c2.965-4.398 5.625-9.023 7.992-13.769q.151-.299.301-.598c1.989-3.98 3.653-8.164 4.672-12.5q.037-.145.074-.297c.43-1.8.633-3.539.633-5.386q.001-.458.008-.914c.008-1.239-.125-2.32-.492-3.508l-.13-.422q-.105-.352-.222-.703a7 7 0 0 1-.199-.985m0 0" style="stroke:none;fill-rule:nonzero;fill:#101011;fill-opacity:1"/><path d="M86.617 25.754h.278q.328.004.664.008c.484 1.375.605 2.746.59 4.191q-.005.386-.004.766c0 1.375-.122 2.703-.477 4.035q-.117.608-.223 1.223c-.11.035-.218.074-.328.109-.074.21-.074.21-.105.46-.067.36-.149.638-.34.95-.227.348-.227.348-.324.7-.153.437-.32.796-.668 1.113-.364.101-.711.086-1.086.074-2.653.027-4.672 1.152-6.543 3.035a17 17 0 0 0-1.66 2.219c-.54-.047-.84-.317-1.23-.668q-.19-.167-.384-.332-.093-.087-.191-.172c-.266-.23-.54-.453-.813-.676-.484-.394-.949-.809-1.41-1.23-.3-.27-.61-.528-.918-.782q-.152-.122-.304-.25-.245-.195-.5-.379c-.184-.132-.184-.132-.442-.398-.105-.742.188-1.242.535-1.871.055-.106.11-.207.164-.313a35 35 0 0 1 1.735-2.812 25.06 25.06 0 0 1 3.54-4.328q.092-.104.186-.207c2.692-2.852 6.336-4.508 10.258-4.465m0 0" style="stroke:none;fill-rule:nonzero;fill:#d9d9d9;fill-opacity:1"/><path d="M90.543 26.871c.21.32.32.582.441.945q.056.158.11.32c.32 1.153.37 2.259.367 3.45 0 .277.004.559.008.836.004 1.61-.04 3.437-.817 4.887a6 6 0 0 0-.109-.223h-.223c.207-.637.207-.637.332-.887.04-.386.047-.777.063-1.168l.015-.363c.036-1.086.047-2.168.047-3.25v-.25c.004-.809-.004-1.605-.125-2.41 0-.438 0-.438.004-.656-.004-.41-.062-.82-.113-1.23m0 0" style="stroke:none;fill-rule:nonzero;fill:#202022;fill-opacity:1"/><path d="M53.066 44.082q.106.054.22.11c-.235.238-.345.269-.661.335q.216.106.441.22l-.343.175c-1.653.863-3.262 1.793-4.743 2.933q-.111-.162-.222-.332c.21-.586.726-.796 1.242-1.086.363-.21.715-.44 1.063-.675.722-.48 1.449-.926 2.222-1.32.113-.06.113-.06.227-.118q.272-.13.554-.242m0 0" style="stroke:none;fill-rule:nonzero;fill:#211f20;fill-opacity:1"/><path d="M33.055 142.016c.11.054.11.054.222.113-.144.39-.375.578-.699.832a5.4 5.4 0 0 0-.558.598c-.27.32-.551.593-.872.867-.332.277-.539.539-.746.922h-.222l-.082.195c-.157.285-.336.477-.578.691h-.223l-.11.336q-.272.28-.554.555c-.106.105-.207.21-.313.32-.105.11-.21.215-.316.325q-.08.08-.16.167c-.14.141-.282.274-.426.407h-.223v.222c-.18.188-.367.371-.55.555q-.129.158-.258.32c-.211.258-.434.473-.688.688a30 30 0 0 0-1.597 1.539q-.147.145-.293.297-.353.352-.704.71c0-.331 0-.331.235-.605.11-.105.219-.215.328-.32.055-.059.113-.113.172-.172.187-.183.37-.367.558-.547l.551-.543q.169-.17.344-.336c.367-.363.691-.742 1.02-1.14.18-.188.367-.371.55-.555q.475-.469.942-.937l.25-.25c.351-.352.699-.704 1.011-1.094q.113-.134.23-.274h.224q.033-.093.074-.187c.187-.328.43-.547.699-.813.09-.093.184-.183.277-.28q.146-.142.297-.294c.16-.16.324-.324.488-.484q.166-.172.336-.336.242-.247.489-.488.14-.147.293-.293c.215-.227.402-.454.582-.711m0 0" style="stroke:none;fill-rule:nonzero;fill:#eff1f2;fill-opacity:1"/><path d="M74.625 49.855c.313.313.457.7.64 1.098.06.125.06.125.118.254l.347.758q.048.104.094.215c.477 1.058.477 1.058.348 1.449h-.332c0 .148 0 .293.004.445q.004.813.008 1.625.002.352.003.703.005.509.004 1.012.005.158.004.32v.297c0 .086.004.172.004.258-.027.227-.027.227-.25.559q.004-.217.008-.438.011-.824.016-1.644l.011-.707c.024-1.442-.035-2.715-.476-4.094l-.13-.422q-.105-.352-.222-.703a7 7 0 0 1-.199-.985m0 0" style="stroke:none;fill-rule:nonzero;fill:#4b4c4c;fill-opacity:1"/><path d="M159.637 141.352h.113c.395 2.054.27 4.148 0 6.214l.219-.109q-.107.217-.219.445h-.223c-.035-.625-.074-1.246-.109-1.89h.11v-.32q-.006-.593-.005-1.184-.004-.259-.003-.512-.002-.369-.004-.738v-.23c0-.544 0-.544.12-.79q.013-.228.009-.457-.001-.214-.008-.43m0 0" style="stroke:none;fill-rule:nonzero;fill:#505055;fill-opacity:1"/><path d="M76.172 53.52c.3.3.355.64.46 1.042l.067.227c.102.387.176.684.024 1.063q-.216-.112-.442-.223c-.074.11-.144.219-.222.332q-.106-.051-.22-.11V53.63q.164-.051.333-.11m0 0" style="stroke:none;fill-rule:nonzero;fill:#161616;fill-opacity:1"/><path d="M90.543 26.871c.633.957.91 2.3.883 3.442h-.219c-.18.164-.18.164-.332.332-.04-.293-.074-.59-.11-.887l-.035-.25a13 13 0 0 1-.078-1.637 13 13 0 0 0-.054-.555c-.012-.086-.02-.171-.032-.257zm0 0" style="stroke:none;fill-rule:nonzero;fill:#282829;fill-opacity:1"/><path d="M75.617 52.852c.274.058.274.058.555.113q.051.274.11.555c-.145.035-.294.074-.442.109 0 .148 0 .293.004.445q.004.813.008 1.625.002.352.003.703.005.509.004 1.012.005.158.004.32v.297c0 .086.004.172.004.258-.027.227-.027.227-.25.559zm0 0" style="stroke:none;fill-rule:nonzero;fill:#484848;fill-opacity:1"/><path d="M76.723 63.29h.113v1h.219c-.055.706-.11 1.41-.22 2.108-.214-.359-.25-.625-.25-1.039 0-.113.005-.226.005-.343q-.001-.178.004-.36v-.36c.004-.878.004-.878.129-1.007m0 0" style="stroke:none;fill-rule:nonzero;fill:#1f1e20;fill-opacity:1"/><path d="M66.223 66.734c-.25.825-.598 1.567-.996 2.332-.23-.406-.23-.406-.153-.75.668-1.582.668-1.582 1.149-1.582m0 0" style="stroke:none;fill-rule:nonzero;fill:#222123;fill-opacity:1"/><path d="M41.125 53.629c.23.05.23.05.441.113-.543.696-1.07 1.336-1.765 1.887q.051-.327.11-.664c.144-.04.292-.074.44-.113v-.223h.223q.051-.218.11-.441h.222l.047-.215c.063-.23.063-.23.172-.344m0 0" style="stroke:none;fill-rule:nonzero;fill:#2b282b;fill-opacity:1"/><path d="M71.75 40.973h.66c.04.183.074.367.113.554q.381.112.774.223v.332h.332v.445h.441q-.054.217-.11.446-.126-.123-.26-.246c-.579-.543-1.153-1.07-1.805-1.532a4 4 0 0 1-.145-.113zm0 0" style="stroke:none;fill-rule:nonzero;fill:#a8a8a8;fill-opacity:1"/><path d="M159.969 143.016h.113c.02 2.906.02 2.906-.113 3.996.074.039.148.074.222.113l-.554.555.047-.403c.152-1.418.234-2.836.285-4.261m0 0" style="stroke:none;fill-rule:nonzero;fill:#dedee3;fill-opacity:1"/><path d="M90.875 34.867h.332c-.055.887-.129 1.649-.555 2.442a6 6 0 0 0-.109-.223h-.223c.118-.379.223-.668.446-1h.218c-.035-.402-.074-.805-.109-1.219m0 0" style="stroke:none;fill-rule:nonzero;fill:#2c2c2e;fill-opacity:1"/><path d="M79.68 40.668q.122.041.25.082c-.317.332-.653.625-1.008.91-.145.113-.145.113-.293.235-.246.187-.246.187-.469.3.04-.183.074-.367.11-.554l.21-.032c.25-.058.25-.058.344-.28.035-.083.074-.161.11-.247.355-.45.355-.45.746-.414m0 0" style="stroke:none;fill-rule:nonzero;fill:#bbbcbb;fill-opacity:1"/><path d="M70.531 38.309c.106.316.106.515.078.859-.015.586.325.941.696 1.36a3.7 3.7 0 0 1-1.106-.778c-.094-.578.043-.941.332-1.441m0 0" style="stroke:none;fill-rule:nonzero;fill:#9f9e9e;fill-opacity:1"/><path d="M87.559 34.09h.109q-.019.376-.043.746-.007.21-.02.422c-.043.34-.09.543-.27.828h-.218c-.039.11-.074.223-.113.336.05-.66.129-1.262.332-1.89h.223zm0 0" style="stroke:none;fill-rule:nonzero;fill:#ababab;fill-opacity:1"/><path d="M65.336 42.86c.414.07.414.07.582.292.18.176.18.176.402.141l.239-.04c.214-.026.214-.026.437-.062.219.223.219.223.219.446q.056.111.113.222c-.703-.175-1.406-.347-2.101-.554.035-.149.074-.293.109-.446m0 0" style="stroke:none;fill-rule:nonzero;fill:#1c161c;fill-opacity:1"/><path d="M81.918 39.64c-.309.208-.617.383-.945.563q-.16.088-.325.176-.248.134-.496.262c.035-.328.063-.508.297-.75.465-.254.95-.266 1.469-.25m0 0" style="stroke:none;fill-rule:nonzero;fill:#c1c3c1;fill-opacity:1"/><path d="M77.719 42.195q.218.051.441.11c-.437.511-.875 1.027-1.324 1.554-.113-.332-.113-.332-.008-.574l.117-.203h.332q.051-.217.11-.445h.332zm0 0" style="stroke:none;fill-rule:nonzero;fill:#c2c4c1;fill-opacity:1"/><path d="M84.398 39.121c.125.004.247.012.375.02q.45.024.907.054v.114c-.067 0-.13.004-.196.004-1.683.05-1.683.05-3.343.328.144-.293.336-.371.629-.493.535-.132 1.085-.066 1.628-.027m0 0" style="stroke:none;fill-rule:nonzero;fill:#9c9d9d;fill-opacity:1"/><path d="M84.988 38.91c.078.008.153.012.235.02.187.011.379.027.566.043q-.054.111-.11.222h-1.992v-.222c.434-.149.852-.098 1.301-.063m0 0" style="stroke:none;fill-rule:nonzero;fill:#c2c4c1;fill-opacity:1"/><path d="M63.68 42.418c.597-.027 1.078.059 1.656.219q-.051.274-.11.554c-.367-.035-.73-.07-1.105-.109v-.223h.664c-.363-.207-.695-.277-1.105-.332zm0 0" style="stroke:none;fill-rule:nonzero;fill:#282328;fill-opacity:1"/><path d="M89.438 40.195h.332c-.157.496-.344.97-.555 1.446-.219-.336-.219-.336-.2-.598.102-.328.22-.574.422-.848m0 0" style="stroke:none;fill-rule:nonzero;fill:#262628;fill-opacity:1"/><path d="M148.031 136.352c.543.53 1.043 1.097 1.547 1.668-.035.074-.074.144-.11.222q-.11-.056-.222-.113v-.223h-.223v-.219h-.218c-.442-.601-.442-.601-.442-.89h-.222q-.056-.217-.11-.445m0 0" style="stroke:none;fill-rule:nonzero;fill:#ededf2;fill-opacity:1"/><path d="M74.625 49.855c.262.266.402.536.578.868l.188.347c.117.34.117.34.023.66q-.058.118-.129.235a9 9 0 0 1-.453-1.055c-.039-.105-.078-.207-.121-.316-.086-.293-.086-.293-.086-.739m0 0" style="stroke:none;fill-rule:nonzero;fill:#8a8b8e;fill-opacity:1"/><path d="M90.652 36.977c-.047.586-.117 1.109-.332 1.664q-.051-.165-.11-.332c-.073-.04-.144-.075-.222-.114l.106-.242c.125-.305.125-.305.172-.617q.03-.122.054-.25c.223-.11.223-.11.332-.11m0 0" style="stroke:none;fill-rule:nonzero;fill:#242325;fill-opacity:1"/><path d="M74.07 42.973c.813.117 1.164.593 1.66 1.218-.464 0-.683-.257-1.015-.546-.063-.051-.125-.106-.188-.157a15 15 0 0 1-.457-.406zm0 0" style="stroke:none;fill-rule:nonzero;fill:#a0a1a0;fill-opacity:1"/><path d="M155.66 146.68c.11.054.11.054.219.11.07.284.07.284.11.558h.222c-.035.472-.074.949-.11 1.441h-.113l-.164-.867-.047-.25a5 5 0 0 1-.117-.992m0 0" style="stroke:none;fill-rule:nonzero;fill:#3d3d42;fill-opacity:1"/><path d="M23.105 146.234h.332c-.164.383-.378.63-.675.918-.082.078-.16.157-.246.239q-.089.087-.184.175c-.074-.07-.145-.144-.223-.218q.104-.047.207-.086c.274-.16.34-.29.457-.582h.223c.035-.149.07-.293.11-.446m0 0" style="stroke:none;fill-rule:nonzero;fill:#323135;fill-opacity:1"/><path d="M159.195 138.906c.403.805.364 1.39.11 2.223h-.11zm0 0" style="stroke:none;fill-rule:nonzero;fill:#2f2e2f;fill-opacity:1"/><path d="M51.406 113.367c.11.04.219.074.332.113-.273.383-.273.383-.55.778-.04-.074-.075-.149-.114-.223h-.332q.111-.274.223-.555.164.056.332.11c.035-.074.074-.145.11-.223m0 0" style="stroke:none;fill-rule:nonzero;fill:#1a191c;fill-opacity:1"/><path d="M118.734 103.152c.579.477 1.07.98 1.547 1.555q-.054.11-.11.223l-.554-.555q-.11-.11-.226-.223c-.657-.68-.657-.68-.657-1m0 0" style="stroke:none;fill-rule:nonzero;fill:#ebecf0;fill-opacity:1"/><path d="M117.188 101.375c.632.465 1.218 1.055 1.546 1.777-.199-.02-.199-.02-.441-.109a12 12 0 0 1-.332-.555 21 21 0 0 0-.617-.691c-.156-.2-.156-.2-.156-.422m0 0" style="stroke:none;fill-rule:nonzero;fill:#ecedf0;fill-opacity:1"/><path d="M152.121 138.574c.418.078.418.078.637.375.137.29.137.29.137.625h.222q.051.164.11.332h-.332c-.204-.293-.204-.293-.407-.668q-.105-.182-.21-.37-.076-.147-.157-.294m0 0" style="stroke:none;fill-rule:nonzero;fill:#2b2c2e;fill-opacity:1"/><path d="M154.773 143.793h.223c.203.305.274.477.352.824l.058.258c.031.266 0 .441-.078.695a60 60 0 0 1-.277-.765l-.082-.22c-.196-.546-.196-.546-.196-.792m0 0" style="stroke:none;fill-rule:nonzero;fill:#3c3c41;fill-opacity:1"/><path d="M39.688 127.914c.039.11.074.219.113.332-.16.227-.16.227-.383.465-.07.082-.145.16-.219.242-.058.059-.113.121-.176.184q-.106-.166-.218-.336zm0 0" style="stroke:none;fill-rule:nonzero;fill:#1c1b1f;fill-opacity:1"/><path d="M33.941 107.262c.07.074.145.144.22.222l-.997 1q-.106-.111-.219-.222c.328-.332.657-.66.996-1m0 0" style="stroke:none;fill-rule:nonzero;fill:#323031;fill-opacity:1"/><path d="M24.32 145.016q.164.052.332.109c-.363.367-.73.734-1.105 1.11q-.051-.164-.11-.333c.11-.035.22-.074.333-.109v-.223h.218v-.336h.332zm0 0" style="stroke:none;fill-rule:nonzero;fill:#2d2e32;fill-opacity:1"/><path d="M153.777 163.113c.04.145.075.293.114.446h.55c-.218.277-.328.332-.683.406-.153.02-.153.02-.313.035.211-.637.211-.637.332-.887m0 0" style="stroke:none;fill-rule:nonzero;fill:#565a5b;fill-opacity:1"/><path d="M45.105 49.855q.164.056.333.11c-.364.332-.731.66-1.106 1q-.054-.164-.11-.332.101-.042.208-.082c.277-.164.324-.297.453-.586q.111-.051.222-.11m0 0" style="stroke:none;fill-rule:nonzero;fill:#353135;fill-opacity:1"/><path d="M71.086 37.2h.11c.023.671.023.671 0 .886-.075.074-.145.144-.22.223h-.331c.12-.387.25-.754.44-1.11m0 0" style="stroke:none;fill-rule:nonzero;fill:#abaaac;fill-opacity:1"/><path d="M90.543 26.648c.496.25.496.25.664.668h-.223q-.055.218-.109.442c-.11-.363-.219-.73-.332-1.11m0 0" style="stroke:none;fill-rule:nonzero;fill:#cbcbca;fill-opacity:1"/><path d="M90.543 26.871c.18.27.289.48.402.777q.04.113.086.23c.063.216.063.216.063.548q-.165-.054-.328-.113c-.082-.211-.082-.211-.133-.477-.02-.086-.035-.172-.055-.262-.035-.258-.035-.258-.035-.703m0 0" style="stroke:none;fill-rule:nonzero;fill:#424343;fill-opacity:1"/><path d="M42.23 124.918q.059.164.11.332c-.133.203-.133.203-.324.41q-.094.101-.188.207l-.148.16c-.075-.148-.149-.293-.223-.445.254-.219.512-.437.773-.664m0 0" style="stroke:none;fill-rule:nonzero;fill:#18171b;fill-opacity:1"/><path d="M76.281 66.398c.29.301.332.434.352.864q-.007.176-.02.36-.054-.164-.11-.333-.162.054-.331.11c-.012-.684-.012-.684 0-.887.035-.04.07-.075.11-.114m0 0" style="stroke:none;fill-rule:nonzero;fill:#1b1a1c;fill-opacity:1"/><path d="M76.504 43.86h.219c-.207.527-.207.527-.332.777-.27-.043-.27-.043-.551-.11-.04-.074-.074-.148-.11-.222q.216.054.442.11v-.224h.219c.039-.109.074-.218.113-.332m0 0" style="stroke:none;fill-rule:nonzero;fill:#bebebb;fill-opacity:1"/><path d="M150.574 139.574c.387.446.637.91.883 1.442-.11.054-.11.054-.223.113v-.336h-.218l-.223-.422-.125-.238c-.094-.227-.094-.227-.094-.559m0 0" style="stroke:none;fill-rule:nonzero;fill:#ededf0;fill-opacity:1"/><path d="M149.688 135.242c.195.016.195.016.44.113.259.317.259.317.446.665q-.056.162-.113.332l-.387-.493q-.104-.135-.215-.277c-.172-.227-.172-.227-.172-.34m0 0" style="stroke:none;fill-rule:nonzero;fill:#333435;fill-opacity:1"/><path d="M145.047 133.023c.457.364.836.684 1.105 1.22-.195-.013-.195-.013-.445-.11q-.229-.329-.441-.668-.106-.051-.22-.11zm0 0" style="stroke:none;fill-rule:nonzero;fill:#edeef2;fill-opacity:1"/><path d="M36.926 131.133c.035.113.07.222.11.336-.134.203-.134.203-.325.41q-.093.1-.191.207c-.047.055-.098.105-.149.16q-.106-.166-.219-.336c.254-.254.508-.512.774-.777m0 0" style="stroke:none;fill-rule:nonzero;fill:#161519;fill-opacity:1"/><path d="M96.512 77.95c.457.374.863.737 1.218 1.218-.332 0-.332 0-.558-.211l-.238-.273-.239-.274c-.183-.242-.183-.242-.183-.46m0 0" style="stroke:none;fill-rule:nonzero;fill:#eeeef2;fill-opacity:1"/><path d="M90.875 34.867h.332q-.056.656-.113 1.332h-.11c-.035-.441-.074-.879-.109-1.332m0 0" style="stroke:none;fill-rule:nonzero;fill:#47474b;fill-opacity:1"/><path d="M18.352 151.344q.162.054.332.11c-.293.292-.582.585-.883.89-.04-.11-.074-.223-.113-.336.07-.028.136-.055.207-.082.273-.16.34-.293.457-.582m0 0" style="stroke:none;fill-rule:nonzero;fill:#343338;fill-opacity:1"/><path d="M111.547 95.047c.355.152.558.324.8.625.09.105.09.105.176.21.063.083.063.083.13.165q-.053.11-.11.223c-.375-.247-.559-.497-.773-.891q-.112-.164-.223-.332m0 0" style="stroke:none;fill-rule:nonzero;fill:#eeeff2;fill-opacity:1"/><path d="M32.172 65.734q.164.056.332.11c-.121.324-.2.531-.445.777-.067-.316-.067-.316-.11-.664.074-.074.145-.148.223-.223m0 0" style="stroke:none;fill-rule:nonzero;fill:#202022;fill-opacity:1"/><path d="M76.613 29.98c0 .332 0 .332-.195.56q-.123.115-.246.237c-.082.082-.164.16-.25.243l-.192.183q-.111-.057-.222-.113c.367-.371.738-.738 1.105-1.11m0 0" style="stroke:none;fill-rule:nonzero;fill:#bebebd;fill-opacity:1"/><path d="M65.336 42.86c.36.038.445.113.691.394l.196.273-.996-.222c.035-.149.074-.293.109-.446m0 0" style="stroke:none;fill-rule:nonzero;fill:#363034;fill-opacity:1"/><path d="m58.55 42.797.337.035c.086.008.172.02.258.027v.114l-1.438.109v-.223c.305-.152.512-.097.844-.062m0 0" style="stroke:none;fill-rule:nonzero;fill:#362f34;fill-opacity:1"/><path d="M61.578 74.727c.11.039.219.074.332.113l-.441.664q-.164-.051-.332-.11c.035-.207.035-.207.11-.445.108-.074.218-.144.331-.222m0 0" style="stroke:none;fill-rule:nonzero;fill:#242326;fill-opacity:1"/><path d="M47.871 47.191c.035.075.07.145.11.223h.331v-.223q.216.056.442.11c-.293.183-.582.367-.883.554a9 9 0 0 1-.113-.554c.039-.035.074-.074.113-.11m0 0" style="stroke:none;fill-rule:nonzero;fill:#2e2a2e;fill-opacity:1"/><path d="M77.719 42.195q.218.051.441.11c-.219.258-.437.511-.664.777q-.051-.217-.11-.445h.333zm0 0" style="stroke:none;fill-rule:nonzero;fill:#b7b9b7;fill-opacity:1"/><path d="M159.75 146.57q.051.218.11.442c.109.039.218.074.331.113-.183.184-.367.363-.554.555.039-.368.074-.735.113-1.11m0 0" style="stroke:none;fill-rule:nonzero;fill:#cbccce;fill-opacity:1"/><path d="M86.895 36.531c.035.074.074.145.109.223-.086.238-.086.238-.215.512q-.06.138-.125.277c-.035.066-.066.137-.102.21-.144-.44-.039-.679.11-1.112q.11-.052.223-.11m0 0" style="stroke:none;fill-rule:nonzero;fill:#adaeae;fill-opacity:1"/><path d="M95.52 76.836h.218c.168.172.168.172.348.39q.087.106.18.22c.043.054.09.113.136.167-.035.075-.074.149-.109.223a10 10 0 0 1-.387-.313c-.11-.085-.11-.085-.219-.175-.167-.176-.167-.176-.167-.512m0 0" style="stroke:none;fill-rule:nonzero;fill:#ebecf0;fill-opacity:1"/><path d="M73.96 32.867q.107.164.22.332c-.153.168-.153.168-.332.332h-.22v.223q-.11-.051-.222-.11c.184-.257.367-.511.555-.777m0 0" style="stroke:none;fill-rule:nonzero;fill:#b2b2b3;fill-opacity:1"/><path d="M154.996 162.781q.107.051.219.11-.328.327-.66.668c-.114-.04-.223-.075-.332-.114.254-.218.507-.437.773-.664m0 0" style="stroke:none;fill-rule:nonzero;fill:#323634;fill-opacity:1"/><path d="M40.02 54.852h.222c-.035.265-.035.265-.113.554l-.328.223c.094-.652.094-.652.219-.777m0 0" style="stroke:none;fill-rule:nonzero;fill:#212023;fill-opacity:1"/><path d="M40.684 54.406c.074.04.144.074.222.114q-.274.325-.554.664-.056-.165-.11-.332zm0 0" style="stroke:none;fill-rule:nonzero;fill:#3b393e;fill-opacity:1"/><path d="M78.383 41.527h.332c-.153.352-.223.446-.555.668.098-.543.098-.543.223-.668m0 0" style="stroke:none;fill-rule:nonzero;fill:#c1c2c1;fill-opacity:1"/></svg>